<svg width="92" height="30" viewBox="0 0 92 30" fill="none" xmlns="http://www.w3.org/2000/svg">
<path d="M42.0205 20.2353L39.6429 16.2433H38.3349V20.2353H36.373V9.5851H40.3361C40.8209 9.55228 41.3073 9.62128 41.7639 9.78764C42.2205 9.954 42.6373 10.2141 42.9874 10.5511C43.2907 10.8637 43.5285 11.2337 43.6869 11.6394C43.8452 12.0451 43.9209 12.4784 43.9095 12.9138C43.9318 13.6044 43.7247 14.2829 43.3205 14.8434C42.9164 15.4038 42.338 15.8147 41.6757 16.0117L44.3561 20.2334L42.0205 20.2353ZM38.3321 11.4162V14.4711H40.1193C41.3151 14.4711 41.8944 13.7938 41.8944 12.9296C41.9027 12.725 41.8679 12.5209 41.792 12.3307C41.7161 12.1404 41.601 11.9683 41.4542 11.8256C41.3073 11.6828 41.1319 11.5727 40.9396 11.5023C40.7473 11.4319 40.5422 11.4029 40.3379 11.4171L38.3321 11.4162Z" fill="#705386"/>
<path d="M46.4192 13.4041C46.8127 13.0093 47.2831 12.6994 47.8012 12.4937C48.3192 12.288 48.874 12.1909 49.4312 12.2083C49.9863 12.1896 50.5392 12.2863 51.055 12.4921C51.5709 12.6979 52.0385 13.0085 52.4282 13.4041C52.8141 13.7825 53.1182 14.2362 53.3215 14.7369C53.5248 15.2377 53.623 15.7749 53.61 16.3152C53.6214 16.8644 53.5207 17.4102 53.3139 17.9191C53.1072 18.4281 52.7988 18.8895 52.4077 19.2752C52.0166 19.6609 51.5509 19.9628 51.0391 20.1624C50.5273 20.362 49.9802 20.4551 49.4312 20.4361C48.8814 20.4584 48.3328 20.3676 47.8196 20.1691C47.3063 19.9707 46.8393 19.6689 46.4475 19.2825C46.0557 18.8962 45.7474 18.4334 45.5418 17.923C45.3363 17.4125 45.2377 16.8653 45.2524 16.3152C45.2401 15.7763 45.3372 15.2405 45.5377 14.7402C45.7383 14.2399 46.0382 13.7854 46.4192 13.4041ZM51.0596 14.6429C50.8485 14.4242 50.5956 14.2502 50.3158 14.1314C50.036 14.0126 49.7352 13.9513 49.4312 13.9513C49.1272 13.9513 48.8264 14.0126 48.5466 14.1314C48.2669 14.2502 48.0139 14.4242 47.8028 14.6429C47.3768 15.0981 47.1399 15.6983 47.1399 16.3218C47.1399 16.9452 47.3768 17.5453 47.8028 18.0006C48.0138 18.2194 48.2668 18.3935 48.5466 18.5124C48.8263 18.6313 49.1272 18.6926 49.4312 18.6926C49.7352 18.6926 50.0361 18.6313 50.3159 18.5124C50.5956 18.3935 50.8486 18.2194 51.0596 18.0006C51.4856 17.5453 51.7226 16.9452 51.7226 16.3218C51.7226 15.6983 51.4856 15.0981 51.0596 14.6429Z" fill="#705386"/>
<path d="M66.9472 13.0864C67.2535 13.4106 67.4906 13.7937 67.6441 14.2124C67.7976 14.6311 67.8644 15.0766 67.8403 15.5219V20.2342H65.9522V15.8676C65.9522 14.5998 65.3038 13.9225 64.3238 13.9225C64.07 13.9231 63.8191 13.977 63.5873 14.0806C63.3556 14.1842 63.1481 14.3352 62.9784 14.524C62.8086 14.7127 62.6804 14.935 62.6019 15.1764C62.5234 15.4178 62.4964 15.673 62.5226 15.9255V20.2342H60.6495V15.8826C60.6495 14.6578 59.9862 13.9207 58.9922 13.9207C58.7365 13.9214 58.4839 13.9757 58.2505 14.0801C58.0171 14.1844 57.8082 14.3365 57.6372 14.5265C57.4662 14.7166 57.3369 14.9403 57.2576 15.1833C57.1783 15.4264 57.1509 15.6834 57.177 15.9377V20.2351H55.3066V12.411H57.1508V13.532C57.3901 13.1156 57.7373 12.7715 58.1557 12.5357C58.5741 12.3 59.0483 12.1813 59.5284 12.1923C60.0117 12.174 60.4899 12.2968 60.9047 12.5456C61.3194 12.7944 61.6527 13.1586 61.864 13.5937C62.1772 13.143 62.5987 12.7785 63.0898 12.5336C63.581 12.2887 64.1258 12.1713 64.6742 12.1923C65.094 12.178 65.5124 12.25 65.9033 12.4037C66.2943 12.5575 66.6496 12.7899 66.9472 13.0864Z" fill="#705386"/>
<path d="M70.6233 13.4041C71.0168 13.0092 71.4871 12.6994 72.0052 12.4937C72.5233 12.288 73.0781 12.1908 73.6353 12.2083C74.1904 12.1896 74.7433 12.2863 75.2592 12.4921C75.775 12.6979 76.2425 13.0085 76.6323 13.4041C77.0182 13.7825 77.3223 14.2362 77.5256 14.7369C77.7289 15.2377 77.8271 15.7749 77.8141 16.3152C77.8255 16.8644 77.7247 17.4102 77.518 17.9191C77.3113 18.4281 77.003 18.8895 76.6118 19.2752C76.2207 19.6609 75.755 19.9628 75.2432 20.1624C74.7314 20.362 74.1843 20.4551 73.6353 20.4361C73.0855 20.4584 72.5369 20.3676 72.0236 20.1691C71.5104 19.9707 71.0434 19.6689 70.6515 19.2825C70.2597 18.8962 69.9515 18.4334 69.7459 17.923C69.5404 17.4125 69.4418 16.8653 69.4565 16.3152C69.4442 15.7763 69.5412 15.2405 69.7418 14.7402C69.9423 14.2398 70.2422 13.7853 70.6233 13.4041ZM75.2637 14.6429C75.0526 14.4242 74.7997 14.2502 74.5199 14.1314C74.2401 14.0126 73.9392 13.9513 73.6353 13.9513C73.3313 13.9513 73.0305 14.0126 72.7507 14.1314C72.4709 14.2502 72.218 14.4242 72.0069 14.6429C71.5812 15.0982 71.3443 15.6984 71.3443 16.3218C71.3443 16.9451 71.5812 17.5452 72.0069 18.0006C72.218 18.2193 72.4709 18.3933 72.7507 18.5121C73.0305 18.631 73.3313 18.6922 73.6353 18.6922C73.9392 18.6922 74.2401 18.631 74.5199 18.5121C74.7997 18.3933 75.0526 18.2193 75.2637 18.0006C75.6897 17.5453 75.9267 16.9452 75.9267 16.3218C75.9267 15.6983 75.6897 15.0981 75.2637 14.6429Z" fill="#705386"/>
<path d="M79.5137 20.2341V12.4146H81.3578V13.5095C81.61 13.088 81.9734 12.744 82.4081 12.5153C82.8428 12.2866 83.3321 12.1819 83.8223 12.2128C84.6315 12.1973 85.4139 12.503 85.9981 13.063C86.3075 13.379 86.5469 13.7566 86.7008 14.1712C86.8547 14.5859 86.9196 15.0282 86.8913 15.4695V20.2388H85.0032V15.988C85.0032 14.6801 84.3259 13.9271 83.2889 13.9271C83.0235 13.9292 82.7614 13.9862 82.5191 14.0945C82.2768 14.2027 82.0595 14.3599 81.8809 14.5562C81.7023 14.7524 81.5662 14.9836 81.4812 15.235C81.3961 15.4864 81.364 15.7526 81.3868 16.017V20.2388L79.5137 20.2341Z" fill="#705386"/>
<path d="M88.7071 10.2918C88.7061 10.1336 88.7371 9.97678 88.7982 9.8308C88.8593 9.68483 88.9492 9.55271 89.0626 9.44235C89.1761 9.33199 89.3106 9.24565 89.4582 9.18855C89.6058 9.13145 89.7634 9.10474 89.9215 9.11003C90.1538 9.11646 90.379 9.19121 90.569 9.32491C90.759 9.45862 90.9053 9.64533 90.9898 9.86177C91.0742 10.0782 91.0931 10.3147 91.0438 10.5418C90.9946 10.7688 90.8796 10.9764 90.713 11.1384C90.5465 11.3004 90.336 11.4098 90.1077 11.4528C89.8793 11.4958 89.6434 11.4705 89.4293 11.3802C89.2153 11.2899 89.0326 11.1385 88.9042 10.9449C88.7757 10.7513 88.7071 10.5242 88.7071 10.2918ZM90.8399 20.2348H88.9518V12.4107H90.8399V20.2348Z" fill="#705386"/>
<path d="M12.7818 30.0087C7.51457 29.5136 0.977765 24.621 0.10426 16.979C-0.342131 13.3146 0.566175 9.61335 2.65824 6.57186C4.75031 3.53038 7.88186 1.35838 11.4636 0.464642C13.4277 -0.0386744 15.4741 -0.134292 17.4766 0.183686C19.4791 0.501664 21.3953 1.22649 23.1069 2.31347C26.3089 4.23992 28.6414 7.33065 29.6157 10.9383C30.5423 14.1111 30.39 17.5017 29.1827 20.5787C27.9754 23.6557 25.7813 26.2452 22.9443 27.9413C23.2311 27.6853 23.5329 27.4433 23.8029 27.1696C24.4027 26.5624 25.0174 25.9654 25.5686 25.3152C26.0947 24.6942 26.5788 24.0388 27.0176 23.3533C27.7761 22.1627 28.3683 20.874 28.7777 19.5229C29.281 17.9113 29.509 16.2263 29.4522 14.5388C29.3762 12.4317 28.833 10.3679 27.8618 8.49642C26.8906 6.62497 25.5157 4.9927 23.8365 3.71763C22.8877 2.99122 21.8521 2.38584 20.7536 1.9155C19.4591 1.36642 18.0923 1.00678 16.6952 0.847665C15.3972 0.69526 14.0841 0.726716 12.7948 0.941094C9.39127 1.4955 6.30285 3.26168 4.09902 5.914C2.61564 7.68487 1.57747 9.78492 1.07118 12.0388C0.752954 13.4296 0.652114 14.8613 0.772231 16.283C0.916748 17.9792 1.34695 19.6387 2.04465 21.1915C2.43581 22.0999 2.92748 22.9616 3.51046 23.7606C3.9241 24.3583 4.37498 24.9293 4.86042 25.4702C6.02634 26.7085 7.3852 27.7496 8.88415 28.5532C9.91069 29.098 10.997 29.5219 12.1213 29.8163C12.3473 29.8789 12.5632 29.9461 12.7818 30.0087Z" fill="#EB008B"/>
<path d="M22.6756 9.4382C20.5398 9.55815 18.4744 10.2444 16.6915 11.4265C14.9087 12.6087 13.4726 14.244 12.5307 16.1647C10.4269 20.2828 10.751 24.3719 13.0287 28.3807C12.7129 28.1686 12.385 27.9715 12.0823 27.7407C10.7676 26.7044 9.73875 25.3501 9.09278 23.8057C8.63346 22.7664 8.31457 21.6706 8.14454 20.5471C7.95957 19.3924 7.91565 18.2194 8.01375 17.0541C8.1212 15.6988 8.44741 14.37 8.97974 13.1191C9.45859 11.994 10.115 10.9531 10.9239 10.0361C11.856 8.9638 12.9722 8.06655 14.2198 7.38665C14.7495 7.10638 15.3045 6.86534 15.8575 6.62898C16.1009 6.5389 16.3508 6.46738 16.6049 6.41504C14.6424 7.21717 12.9159 8.50495 11.5877 10.1574C10.2594 11.8099 9.37293 13.7729 9.0115 15.862C8.5593 17.9398 8.62494 20.097 9.20263 22.1435C9.78032 24.19 10.8523 26.0631 12.3243 27.5978C10.7976 25.4186 10.1564 22.7405 10.5306 20.1062C10.7723 17.0988 12.1753 14.3036 14.4422 12.3127C16.7092 10.3218 19.6621 9.29152 22.6756 9.44008V9.4382Z" fill="#EB008B"/>
<path d="M22.016 14.8175C22.0973 14.7951 22.1795 14.7689 22.2636 14.7493C22.4402 14.7072 22.6177 14.668 22.8475 14.6147C22.7653 14.952 22.699 15.2687 22.6121 15.5705C22.1115 17.2877 21.2377 18.8732 20.0532 20.2136C19.6898 20.6206 19.3 21.0032 18.8864 21.3589C18.7398 21.4897 18.6412 21.6656 18.6061 21.8588C18.3153 23.1577 18.2208 24.493 18.3258 25.8199C18.3856 26.6318 18.5379 27.4371 18.6435 28.2125C18.1811 27.3248 17.8767 26.3635 17.7438 25.3715C17.5863 24.3503 17.5803 23.3114 17.726 22.2885C17.5392 22.4109 17.3935 22.5155 17.2384 22.6052C16.7934 22.8883 16.3327 23.1459 15.8585 23.3769C15.5526 23.505 15.2192 23.5532 14.8895 23.517C14.5599 23.4807 14.2449 23.3611 13.9742 23.1695C12.982 22.5222 12.1555 21.6512 11.5611 20.6265C11.54 20.5808 11.5222 20.5337 11.5078 20.4854C11.8936 20.8078 12.229 21.1161 12.5934 21.3851C13.1203 21.7738 13.6584 22.1502 14.2096 22.5062C14.4796 22.6942 14.801 22.7944 15.1301 22.7931C15.4591 22.7917 15.7797 22.6889 16.0482 22.4987C16.6783 22.1016 17.2873 21.6719 17.8727 21.2114C19.1069 20.2344 20.1378 19.0252 20.9071 17.6519C21.3976 16.759 21.7703 15.8062 22.016 14.8175Z" fill="#EB008B"/>
<path d="M23.1449 11.1848C23.1141 11.9976 23.0833 12.8048 23.0515 13.654L24.6397 13.4812L24.6556 13.5288C24.3632 13.6325 24.0726 13.7446 23.7774 13.8399C22.1754 14.3509 20.4894 14.546 18.8129 14.4145C18.5672 14.3967 18.3225 14.3603 18.0796 14.3211C18.031 14.3126 17.9553 14.251 17.9544 14.2108C17.9432 13.9436 17.9488 13.6764 17.9488 13.4064C18.4775 13.484 18.969 13.5886 19.4632 13.6194C20.3273 13.6736 21.1943 13.6858 22.0603 13.7035C22.0998 13.694 22.1362 13.6746 22.1661 13.6472C22.196 13.6197 22.2184 13.5851 22.2313 13.5466C22.2855 13.0729 22.3247 12.5965 22.3649 12.1219C22.3798 11.9593 22.2649 11.9565 22.1631 11.9593C21.4792 11.9733 20.7944 11.9715 20.1125 12.0172C19.4959 12.0583 18.8802 12.1424 18.2673 12.2284C17.7881 12.2956 17.3144 12.3975 16.838 12.4825C16.7614 12.4965 16.6829 12.504 16.5811 12.5189C17.3565 11.8444 21.5418 10.8952 23.1449 11.1848Z" fill="#EB008B"/>
<path d="M17.0864 19.1736C16.8407 19.3885 16.5866 19.622 16.3185 19.8407C16.0716 20.0311 15.7698 20.1366 15.458 20.1415C15.3186 20.1544 15.1786 20.16 15.0386 20.1583C14.7186 20.1683 14.4012 20.0989 14.1146 19.9565C14.0337 19.9122 13.9568 19.8609 13.8848 19.8033C13.64 19.5921 13.3999 19.3764 13.1523 19.1568C13.3805 19.0462 13.5864 18.8945 13.7596 18.7093C13.9174 18.5659 14.1009 18.4537 14.3005 18.3786C14.3981 18.3372 14.5049 18.3222 14.6101 18.335C14.7154 18.3478 14.8154 18.3879 14.9003 18.4515C14.9399 18.48 14.9814 18.5059 15.0245 18.529C15.0563 18.5495 15.0933 18.5604 15.131 18.5604C15.1688 18.5604 15.2058 18.5495 15.2376 18.529C15.2664 18.5133 15.2939 18.4952 15.3198 18.4748C15.4317 18.3898 15.567 18.3413 15.7074 18.336C15.8478 18.3306 15.9865 18.3687 16.1045 18.4449C16.3209 18.5689 16.5211 18.7192 16.7006 18.8924C16.8232 18.9941 16.952 19.088 17.0864 19.1736Z" fill="#705386"/>
</svg>
